<svg xmlns="http://www.w3.org/2000/svg" width="20" height="20" viewBox="0 0 20 20" id="project|images|officialImages|InustryRetail1.svg" x="63" y="136"><g fill="#5DBC52" fill-rule="evenodd"><path d="M15.135 11.305c-.379 0-.682-.317-.682-.714 0-.396.303-.713.682-.713.38 0 .683.317.683.713 0 .377-.303.714-.683.714m-3.364 0c-.38 0-.683-.317-.683-.714 0-.396.303-.713.683-.713.379 0 .682.317.682.713 0 .377-.303.714-.682.714m4.993 4.003c1.064-.8 1.736-1.99 1.736-3.299 0-2.42-2.24-4.373-5.023-4.373-2.782 0-5.022 1.953-5.022 4.373s2.24 4.373 5.022 4.373a5.68 5.68 0 0 0 1.643-.234c.038-.02.094-.02.15-.02.093 0 .186.04.261.078l1.102.664c.037.02.056.04.093.04a.171.171 0 0 0 .168-.177c0-.039-.018-.078-.018-.136 0-.02-.15-.547-.225-.879-.018-.039-.018-.078-.018-.117a.28.28 0 0 1 .13-.293"/><path d="M9.742 7.268a.793.793 0 1 1 0-1.588c.45 0 .805.35.805.794a.805.805 0 0 1-.805.794m-4.12 0a.793.793 0 1 1 0-1.588c.448 0 .803.35.803.794a.805.805 0 0 1-.804.794M7.73 3C4.297 3 1.5 5.278 1.5 8.105c0 1.538.83 2.923 2.16 3.853.097.076.174.19.174.342 0 .038-.02.095-.02.133-.096.38-.27 1.006-.289 1.025-.019.057-.038.094-.038.151 0 .114.096.21.212.21a.277.277 0 0 0 .116-.039l1.369-.778a.658.658 0 0 1 .328-.095c.058 0 .116 0 .174.02a7.9 7.9 0 0 0 2.025.284h.347a3.884 3.884 0 0 1-.212-1.253c0-2.562 2.546-4.65 5.67-4.65h.348C13.42 4.86 10.835 3 7.73 3"/></g></svg>
