<svg version="1.1" xmlns="http://www.w3.org/2000/svg" xmlns:xlink="http://www.w3.org/1999/xlink" width="48" height="48"><defs><linearGradient x1="0" y1="0" x2="0" y2="0" gradientUnits="userSpaceOnUse" id="color-1"><stop offset="1" stop-color="#000000" stop-opacity="0"></stop><stop offset="1" stop-color="#000000" stop-opacity="0"></stop></linearGradient><filter id="dropshadow-base"><feColorMatrix type="matrix" values="0 0 0 0 0  0 0 0 0 0  0 0 0 0 0  0 0 0 .8 0"></feColorMatrix> <feOffset dx="0" dy="1"></feOffset> <feGaussianBlur stdDeviation="1"></feGaussianBlur> <feComposite in="SourceGraphic"></feComposite></filter><filter id="dropshadow-banner" x="-10%" y="-10%" width="120%" height="130%"><feColorMatrix type="matrix" values="0 0 0 0 0  0 0 0 0 0  0 0 0 0 0  0 0 0 .4 0"></feColorMatrix> <feOffset dx="0" dy="1"></feOffset> <feGaussianBlur stdDeviation="0.5"></feGaussianBlur> <feComposite in="SourceGraphic"></feComposite></filter></defs><g fill="none" fill-rule="nonzero" stroke="none" stroke-width="none" stroke-linecap="butt" stroke-linejoin="miter" stroke-miterlimit="10" stroke-dasharray="" stroke-dashoffset="0" font-family="none" font-weight="none" font-size="none" text-anchor="none" style="mix-blend-mode: normal"><path d="M2,24c0,-12.15026 9.84974,-22 22,-22c12.15026,0 22,9.84974 22,22c0,12.15026 -9.84974,22 -22,22c-12.15026,0 -22,-9.84974 -22,-22z" id="base 1 5" fill-opacity="0" fill="#ffffff" stroke-width="1"></path><path d="" fill="url(#color-1)" stroke-width="1"></path><path d="M12.23187,35.76813v-23.53627h23.53627v23.53627z" fill="none" stroke-width="0"></path><g stroke-width="1"><path d="M25.66715,31.40412l5.76638,-5.77619l3.28527,3.29508c0.65695,0.65662 1.02604,1.54738 1.02604,2.47621c0,0.92883 -0.3691,1.81959 -1.02604,2.47621l-0.81396,0.81396c-0.65662,0.65695 -1.54738,1.02604 -2.47621,1.02604c-0.92883,0 -1.81959,-0.3691 -2.47621,-1.02604zM34.709,14.09516l-0.81396,-0.81396c-0.65662,-0.65695 -1.54738,-1.02604 -2.47621,-1.02604c-0.92883,0 -1.81959,0.3691 -2.47621,1.02604l-4.94262,4.95242l-4.95242,-4.95242c-0.65662,-0.65695 -1.54738,-1.02604 -2.47621,-1.02604c-0.92883,0 -1.81959,0.3691 -2.47621,1.02604l-0.81396,0.81396c-0.65695,0.65662 -1.02604,1.54738 -1.02604,2.47621c0,0.92883 0.3691,1.81959 1.02604,2.47621l4.95242,4.95242l-4.95242,4.95242c-0.65695,0.65662 -1.02604,1.54738 -1.02604,2.47621c0,0.92883 0.3691,1.81959 1.02604,2.47621l0.81396,0.81396c0.65662,0.65695 1.54738,1.02604 2.47621,1.02604c0.92883,0 1.81959,-0.3691 2.47621,-1.02604l4.95242,-4.95242l3.60889,-3.60889l2.15749,-2.15749l4.95242,-4.95242c0.65695,-0.65662 1.02604,-1.54738 1.02604,-2.47621c0,-0.92883 -0.3691,-1.81959 -1.02604,-2.47621z" fill="#000000"></path><path d="M12.23187,35.76813v-23.53627h23.53627v23.53627z" fill-opacity="0" fill="#000000"></path></g><path d="M2,24c0,-12.15026 9.84974,-22 22,-22c12.15026,0 22,9.84974 22,22c0,12.15026 -9.84974,22 -22,22c-12.15026,0 -22,-9.84974 -22,-22z" id="base 1 1 1" fill="none" stroke-width="1"></path><g fill="#000000" stroke-width="1" font-family="Roboto, sans-serif" font-weight="400" font-size="14" text-anchor="start"></g><rect x="2" y="2" width="44" height="22" fill="none" stroke-width="1"></rect><path d="M2,24v-22h44v22z" fill="none" stroke-width="1"></path><path d="M2,24v-22h44v22z" fill="none" stroke-width="1"></path><path d="M2,24v-22h44v22z" fill="none" stroke-width="1"></path><path d="M2,24v-22h44v22z" fill="none" stroke-width="1"></path></g></svg>
